<svg xmlns="https://www.w3.org/2000/svg" width="32" height="32" viewBox="0 0 32 32"><radialGradient id="a" cx="16.5" cy="16.109" r="10.697" gradientUnits="userSpaceOnUse"><stop offset="0" stop-color="#1c1a22" stop-opacity=".2"/><stop offset="1" stop-color="#1c1a22"/></radialGradient><path fill="url(#a)" d="M26.43 9.838l-9.5-4.53a1.066 1.066 0 0 0-.86 0l-9.5 4.53a.995.995 0 0 0-.57.901V21.48c0 .379.22.738.57.898l9.5 4.531a1.071 1.071 0 0 0 .86.001l9.5-4.531a.99.99 0 0 0 .57-.898V10.739c0-.38-.22-.74-.57-.901zM16 24.18c0 .34-.18.66-.47.84a.925.925 0 0 1-.53.16.923.923 0 0 1-.43-.1L10 22.91c-.01 0-.01-.01-.02-.01C6.969 21.391 7 18 7 18v-4.961a.999.999 0 0 1 1-1c.15 0 .31.03.45.1l7 3.5c.34.17.55.521.55.9v7.641zm.5-9.252c-.15 0-.31-.029-.45-.1l-6.77-3.38c-.34-.17-.55-.53-.55-.91.01-.38.229-.73.569-.89l6.771-3.23c.069-.03.14-.05.21-.07a.818.818 0 0 1 .44 0c.07.021.141.04.21.07l3.42 1.63c.011 0 .04.021.091.05.56.301 3.669 2.839.56 4.71l-4.05 2.021c-.141.07-.301.099-.451.099zm4.55 8.902c-.02.01-.03.02-.05.029l-2.57 1.221c-.14.07-.279.1-.43.1a.925.925 0 0 1-.53-.16.995.995 0 0 1-.47-.84v-7.641c0-.379.21-.73.55-.9l5.37-2.68v.01S25 12.86 25 15.86c0 2.99 0 5.97-3.95 7.97z"/></svg>