<svg xmlns="https://www.w3.org/2000/svg" width="32" height="32" viewBox="0 0 32 32"><radialGradient id="a" cx="26.131" cy="10.075" r=".198" gradientUnits="userSpaceOnUse"><stop offset="0" stop-color="#1c1b22" stop-opacity=".6"/><stop offset="1" stop-color="#1c1b22"/></radialGradient><path fill="url(#a)" d="M26.03 10H26l-.14.15c.18-.03.35-.051.54-.07a1.28 1.28 0 0 0-.37-.08z"/><radialGradient id="b" cx="16" cy="16.5" r="11.23" gradientUnits="userSpaceOnUse"><stop offset="0" stop-color="#1c1b22" stop-opacity=".6"/><stop offset="1" stop-color="#1c1b22"/></radialGradient><path fill="url(#b)" d="M28.93 9.67c-.15-.4-.52-.67-.93-.67-3.56 0-6 1.04-8.65 3.27-.24-.17-.53-.27-.85-.27h-5c-.32 0-.61.1-.86.27C10 10.04 7.56 9 4 9c-.41 0-.78.27-.93.67C3.03 9.79 2 12.59 2 16.5c0 3.88 1.01 6.63 1.05 6.77.14.44.52.73.95.73 3.48 0 5.97-1.08 8.62-3.29.25.18.55.29.88.29h5c.33 0 .63-.11.88-.29C22.03 22.92 24.52 24 28 24c.43 0 .81-.29.95-.73.04-.14 1.05-2.89 1.05-6.77 0-3.91-1.03-6.71-1.07-6.83zM8.5 17H10s2 0 2 2v.5c0 .14.03.27.06.4C9.42 22.16 7.22 23 4 23c0 0-1-2.71-1-6.5S4 10 4 10c3.22 0 5.42.84 8.06 3.1-.03.13-.06.26-.06.4V15s0 1-1 1H8.5c-.28 0-.5.22-.5.5s.22.5.5.5zm6.5 3c-2 0-2-2-2-2v-4c0-1 1-1 1-1h3s1 0 1 2 0 5-3 5zm8.63 2.25c-1.24-.5-2.41-1.26-3.689-2.35.039-.13.059-.26.059-.4V18c0-1 1-1 1-1h2.5c.28 0 .5-.22.5-.5s-.22-.5-.5-.5H22c-2 0-2-2-2-2v-.5c0-.14-.02-.27-.06-.4 2.01-1.72 3.77-2.619 5.92-2.949L26 10h.03c.06 0 .2.02.37.08.439.15 1.1.59 1.1 1.92 0 2 .291 10.333-3.87 10.25z"/><radialGradient id="c" cx="25.945" cy="10.075" r=".08" gradientUnits="userSpaceOnUse"><stop offset="0" stop-color="#1c1b22" stop-opacity=".6"/><stop offset="1" stop-color="#1c1b22"/></radialGradient><path fill="url(#c)" d="M26.03 10l-.17.15L26 10h.03z"/></svg>