<svg xmlns="https://www.w3.org/2000/svg" width="32" height="32" viewBox="0 0 32 32"><radialGradient id="a" cx="-188" cy="72" r="12.165" gradientTransform="matrix(1 0 0 -1 204 88)" gradientUnits="userSpaceOnUse"><stop offset="0" stop-color="#1c1b23" stop-opacity=".6"/><stop offset="1" stop-color="#1c1b23"/></radialGradient><path fill="url(#a)" d="M25.41 9L19 2.59c-.35-.36-.38-.59-1-.59H7.5C6.67 2 6 2.67 6 3.5v25c0 .83.67 1.5 1.5 1.5H23c3 0 3-3 3-3V10c0-.63-.23-.65-.59-1zM19 6s0-1 1-1l2.68 2.68c.89.89-.27 1.32-.27 1.32H19.5c-.279 0-.5-.22-.5-.5V6zm-2 23h-5-.02c-.35-.01-4.98-.189-4.98-5V7s0-4 4-4h7v5.5c0 .83.67 1.5 1.5 1.5H21s3 0 3 4 1 15-7 15z"/><radialGradient id="b" cx="10.5" cy="12.5" r="1.5" gradientUnits="userSpaceOnUse"><stop offset="0" stop-color="#1c1b23" stop-opacity=".6"/><stop offset="1" stop-color="#1c1b23"/></radialGradient><circle fill="url(#b)" cx="10.5" cy="12.5" r="1.5"/><radialGradient id="c" cx="10.5" cy="17.5" r="1.5" gradientUnits="userSpaceOnUse"><stop offset="0" stop-color="#1c1b23" stop-opacity=".6"/><stop offset="1" stop-color="#1c1b23"/></radialGradient><circle fill="url(#c)" cx="10.5" cy="17.5" r="1.5"/><radialGradient id="d" cx="10.5" cy="22.5" r="1.5" gradientUnits="userSpaceOnUse"><stop offset="0" stop-color="#1c1b23" stop-opacity=".6"/><stop offset="1" stop-color="#1c1b23"/></radialGradient><circle fill="url(#d)" cx="10.5" cy="22.5" r="1.5"/><radialGradient id="e" cx="17.5" cy="13" r="3.26" gradientUnits="userSpaceOnUse"><stop offset="0" stop-color="#1c1b23" stop-opacity=".6"/><stop offset="1" stop-color="#1c1b23"/></radialGradient><path fill="url(#e)" d="M22 13s0 1-1 1-1-1-5-1h-2.5c-.28 0-.5-.22-.5-.5s.22-.5.5-.5H21s1 0 1 1z"/><radialGradient id="f" cx="17.5" cy="18" r="3.26" gradientUnits="userSpaceOnUse"><stop offset="0" stop-color="#1c1b23" stop-opacity=".6"/><stop offset="1" stop-color="#1c1b23"/></radialGradient><path fill="url(#f)" d="M22 18s0 1-1 1-1-1-5-1h-2.5c-.28 0-.5-.22-.5-.5s.22-.5.5-.5H21s1 0 1 1z"/><radialGradient id="g" cx="17.5" cy="23" r="3.26" gradientUnits="userSpaceOnUse"><stop offset="0" stop-color="#1c1b23" stop-opacity=".6"/><stop offset="1" stop-color="#1c1b23"/></radialGradient><path fill="url(#g)" d="M22 23s0 1-1 1-1-1-5-1h-2.5c-.28 0-.5-.22-.5-.5s.22-.5.5-.5H21s1 0 1 1z"/></svg>