<svg xmlns="http://www.w3.org/2000/svg" width="32" height="32" viewBox="0 0 32 32"><radialGradient id="a" cx="26" cy="12.985" r="1.007" gradientUnits="userSpaceOnUse"><stop offset="0" stop-color="#1c1a22" stop-opacity=".6"/><stop offset="1" stop-color="#1c1a22"/></radialGradient><path fill="url(#a)" d="M26 11.98a1.004 1.004 0 1 0 0 2.01 1.005 1.005 0 0 0 0-2.01zm0 0a1.004 1.004 0 1 0 0 2.01 1.005 1.005 0 0 0 0-2.01zm0 0a1.004 1.004 0 1 0 0 2.01 1.005 1.005 0 0 0 0-2.01z"/><radialGradient id="b" cx="18.5" cy="18.5" r="6.5" gradientUnits="userSpaceOnUse"><stop offset="0" stop-color="#1c1a22" stop-opacity=".6"/><stop offset="1" stop-color="#1c1a22"/></radialGradient><path fill="url(#b)" d="M18.5 12a6.5 6.5 0 1 0 0 13H22c3 0 3-3 3-3v-3.5a6.5 6.5 0 0 0-6.5-6.5zm-5.49 6.5c0-3.03 2.45-5.49 5.49-5.49s5.49 2.46 5.49 5.49-2.46 5.49-5.49 5.49-5.49-2.46-5.49-5.49z"/><radialGradient id="c" cx="18.5" cy="18.5" r="3.51" gradientUnits="userSpaceOnUse"><stop offset="0" stop-color="#1c1a22" stop-opacity=".6"/><stop offset="1" stop-color="#1c1a22"/></radialGradient><path fill="url(#c)" d="M18.5 14.99c-1.94 0-3.51 1.569-3.51 3.51s1.569 3.51 3.51 3.51 3.51-1.569 3.51-3.51-1.57-3.51-3.51-3.51zm-1.13 5.72c-.907-.149-1.36-1.25-1.36-2.21 0-1.37.912-2.5 2.49-2.49h.01c1.734-.01 2.71 4.711-1.14 4.7z"/><radialGradient id="d" cx="16" cy="17.5" r="11.385" gradientUnits="userSpaceOnUse"><stop offset="0" stop-color="#1c1a22" stop-opacity=".6"/><stop offset="1" stop-color="#1c1a22"/></radialGradient><path fill="url(#d)" d="M27 10H14s-1 0-2-1-2-1-2-1H7c-1.23 0-1.7 1.13-1.88 2H5c-1.1 0-2 .9-2 2v13c0 1.1.9 2 2 2h22c1.1 0 2-.9 2-2V12c0-1.1-.9-2-2-2zm1 8s0 8-5 8H12s-2 0-5-2c-5-5 2-13 2-13h18c.55 0 1 .45 1 1v6z"/></svg>